<?xml version="1.0" standalone="no"?>
<!DOCTYPE svg PUBLIC "-//W3C//DTD SVG 20010904//EN"
 "http://www.w3.org/TR/2001/REC-SVG-20010904/DTD/svg10.dtd">
<svg version="1.0" xmlns="http://www.w3.org/2000/svg"
 width="264.000000pt" height="264.000000pt" viewBox="0 0 264.000000 264.000000"
 preserveAspectRatio="xMidYMid meet">

<g transform="translate(0.000000,264.000000) scale(0.100000,-0.100000)"
fill="#000000" stroke="none">
<path d="M458 2615 c-22 -29 -23 -55 -2 -55 12 0 10 -7 -9 -32 -29 -38 -67
-112 -67 -129 0 -8 11 -9 33 -6 l32 6 -32 -27 c-36 -31 -42 -49 -18 -54 12 -2
5 -15 -25 -52 -44 -54 -44 -71 3 -60 35 7 36 11 -20 -59 -28 -35 -29 -47 -4
-47 17 0 20 -10 26 -87 4 -49 18 -140 30 -203 13 -63 21 -117 18 -120 -2 -3
-32 -3 -64 -2 -47 3 -65 0 -80 -14 -24 -21 -49 -103 -49 -160 0 -64 27 -178
54 -232 50 -99 171 -202 238 -202 20 0 28 -7 37 -31 6 -18 11 -34 11 -35 0 -2
-25 -4 -55 -4 -30 0 -55 -3 -55 -6 0 -3 8 -18 18 -32 39 -58 69 -183 67 -280
-1 -46 -18 -65 -47 -56 -11 3 -22 -3 -30 -15 -22 -36 -70 -25 -93 20 -14 25
-18 27 -41 18 -40 -15 -74 11 -74 57 l0 35 -26 -20 c-31 -25 -57 -27 -77 -6
-17 16 -18 14 -57 -106 -29 -87 -25 -105 20 -101 41 4 180 -17 196 -30 6 -4
19 -6 27 -2 30 11 37 -5 21 -48 -10 -30 -14 -91 -14 -239 l0 -199 25 0 25 0 0
190 c0 165 3 198 20 247 52 149 207 207 354 134 75 -38 176 -103 176 -114 0
-4 -42 -62 -92 -128 -51 -66 -128 -166 -171 -222 -70 -91 -81 -118 -44 -104 7
3 80 93 162 202 83 108 156 204 162 212 12 15 15 14 37 -6 24 -23 46 -21 46 3
0 13 -55 67 -115 113 -73 55 -137 86 -209 103 l-71 16 -3 95 c-2 78 0 98 13
109 13 11 21 8 50 -20 19 -18 37 -47 41 -64 16 -72 154 -168 309 -215 126 -38
195 -86 195 -136 0 -31 41 -13 54 24 13 41 50 62 161 91 57 15 114 42 197 91
134 79 176 112 192 149 6 15 23 41 39 59 22 27 30 31 42 21 22 -19 29 -76 15
-139 l-12 -59 -50 -6 c-71 -10 -140 -38 -190 -78 -52 -42 -99 -71 -178 -109
-60 -29 -80 -59 -40 -59 12 0 44 12 72 26 28 14 54 22 58 17 7 -8 161 -285
214 -385 20 -37 37 -58 49 -58 9 0 17 1 17 3 0 2 -65 122 -231 427 l-20 35 38
33 c68 58 110 83 164 98 162 43 272 -9 329 -155 19 -49 23 -82 28 -248 l5
-193 23 0 c24 0 24 2 24 94 0 92 0 94 25 100 14 4 30 4 35 1 6 -4 30 -3 55 1
l45 6 0 214 c0 191 -7 253 -24 209 -8 -22 -56 -18 -83 6 -22 21 -23 21 -29 3
-19 -54 -68 -70 -103 -35 -13 13 -21 16 -24 8 -2 -8 -15 -6 -40 8 -20 11 -37
23 -37 27 0 4 -15 12 -33 19 l-33 12 12 67 c6 38 21 84 33 103 27 44 27 47 -8
47 -42 0 -50 20 -9 21 18 1 44 5 58 9 15 6 -3 7 -48 3 -42 -3 -72 -2 -72 4 0
24 28 33 100 33 65 0 79 3 105 25 l30 24 -92 1 c-98 0 -99 1 -87 48 5 16 14
22 33 22 76 1 194 102 248 212 53 109 64 281 23 358 -20 38 -56 53 -110 47
l-50 -6 0 119 c0 123 9 186 41 280 l18 55 -37 32 -37 32 38 1 c59 0 57 22 -10
85 -32 31 -49 53 -38 49 32 -11 75 -17 75 -9 0 13 -87 141 -130 190 -41 47
-42 49 -21 59 24 10 27 26 9 44 -9 9 -203 12 -813 12 l-800 -1 -17 -24z m251
-317 c27 -107 143 -318 176 -318 23 0 22 12 -6 97 -16 48 -27 88 -25 91 3 2
17 -16 32 -40 46 -73 108 -150 184 -226 40 -40 70 -75 67 -78 -3 -3 -42 2 -88
11 -46 9 -136 18 -199 22 -109 5 -117 4 -143 -17 -39 -31 -22 -40 73 -40 41 0
116 -6 165 -14 177 -27 183 -28 205 -6 26 26 32 25 24 -5 -4 -15 -2 -25 5 -25
6 0 11 5 11 10 0 7 13 8 35 4 41 -7 45 5 15 43 -11 14 -20 34 -20 43 0 10 -11
25 -24 33 -23 15 -76 98 -103 159 l-12 27 52 -32 c29 -18 97 -55 152 -83 100
-50 100 -51 97 -85 -3 -22 4 -49 19 -76 27 -50 32 -51 157 -27 51 9 88 12 94
6 5 -5 -5 -9 -26 -10 -48 -2 -116 -36 -156 -77 -38 -40 -44 -41 -85 -19 -43
22 -124 22 -174 -1 l-42 -18 -37 36 c-60 58 -112 77 -217 77 -49 0 -107 -5
-129 -9 -42 -10 -108 -67 -132 -114 -22 -42 -55 -33 -70 18 -21 67 -17 134 11
194 22 46 24 59 15 85 -18 52 -28 159 -20 213 11 68 77 201 101 203 3 0 11
-24 18 -52z m821 -470 c0 -4 -12 -8 -27 -9 -16 0 -37 -4 -48 -8 -11 -5 -25 -4
-32 1 -13 11 -18 60 -7 71 7 7 114 -44 114 -55z m125 48 c42 -18 44 -26 8 -26
-32 0 -91 39 -60 40 10 0 33 -7 52 -14z m346 -73 c5 -14 8 -63 7 -107 -3 -74
-5 -81 -24 -84 -16 -2 -30 8 -49 35 -37 51 -102 98 -147 107 -21 4 -42 15 -48
25 -8 17 -3 20 48 34 31 8 90 15 130 16 70 1 73 0 83 -26z m-980 -94 c20 -5
56 -26 79 -47 37 -33 43 -44 47 -89 5 -49 3 -53 -33 -92 -22 -22 -56 -48 -77
-56 -37 -15 -38 -15 -27 4 5 11 15 23 20 26 6 3 10 12 10 18 0 7 -18 -7 -40
-30 -29 -33 -47 -43 -70 -43 -37 0 -37 6 -2 44 l27 29 -32 -22 c-18 -12 -35
-26 -38 -31 -28 -45 -215 56 -215 116 0 8 0 17 0 22 0 12 36 10 98 -4 32 -8
113 -14 185 -14 82 0 134 -4 147 -12 26 -16 35 -5 19 24 -41 78 -207 120 -327
83 -31 -10 -66 -24 -77 -31 -27 -19 -35 -17 -35 9 0 24 38 66 80 88 51 26 174
30 261 8z m791 0 c42 -11 108 -68 108 -93 0 -20 -12 -20 -48 -3 -46 23 -149
40 -208 34 -70 -7 -143 -45 -168 -86 -19 -33 -15 -54 6 -33 8 8 57 12 148 12
87 0 154 5 190 15 71 19 90 19 90 -1 0 -35 -41 -82 -99 -113 -67 -35 -83 -38
-74 -13 5 14 2 13 -18 -4 -19 -18 -33 -21 -69 -17 -25 3 -55 6 -67 7 -33 4
-37 11 -18 40 20 31 6 35 -20 6 -23 -26 -39 -25 -71 3 -41 35 -57 74 -49 123
16 110 188 167 367 123z m-1385 -104 c24 -26 43 -55 43 -68 0 -12 7 -46 14
-75 19 -70 5 -58 -24 20 -54 148 -170 177 -170 42 0 -37 15 -74 29 -74 5 0 7
27 4 60 -6 66 6 82 46 60 27 -14 27 -32 0 -48 -28 -18 -10 -39 19 -23 28 15
28 15 41 -18 11 -26 10 -31 -18 -59 -25 -24 -31 -39 -31 -73 0 -41 -1 -42 -19
-25 -35 32 -32 -2 6 -51 51 -66 62 -73 113 -71 l45 3 3 -37 c4 -45 -14 -50
-65 -18 -123 75 -205 253 -184 401 11 79 24 99 68 99 30 0 44 -8 80 -45z
m1875 5 c34 -68 20 -208 -30 -306 -43 -83 -145 -174 -197 -174 -17 0 -18 4 -9
48 6 30 8 31 48 26 33 -5 47 -1 69 16 41 32 90 107 76 116 -7 4 -18 -1 -26
-11 -12 -17 -13 -16 -13 14 0 38 -23 86 -47 100 -14 8 -16 14 -7 38 9 26 15
29 57 21 21 -5 23 14 2 26 -11 6 -22 12 -24 13 -2 2 4 12 14 23 42 46 72 10
59 -71 -6 -33 -4 -41 7 -37 21 7 30 72 16 115 -28 88 -115 36 -166 -98 l-31
-81 20 -25 c11 -14 20 -32 20 -41 0 -24 -40 -82 -57 -82 -13 0 -14 10 -9 61 8
69 39 211 54 250 6 15 28 43 48 63 32 31 44 36 74 34 29 -2 38 -9 52 -38z
m-916 11 c22 -18 23 -20 8 -29 -32 -18 -12 -77 43 -127 26 -24 54 -44 61 -45
17 0 15 -20 -5 -42 -9 -10 -13 -21 -9 -25 3 -4 15 3 26 15 12 12 30 22 42 22
l21 0 -20 -22 c-36 -41 -37 -54 -2 -20 33 30 69 43 69 24 0 -5 -9 -17 -20 -27
-11 -10 -18 -20 -15 -23 2 -3 21 10 41 27 22 20 44 31 57 29 22 -4 24 -8 12
-43 -4 -13 0 -10 11 7 10 16 34 33 54 39 99 31 173 89 187 146 7 31 14 39 36
41 19 2 27 -1 27 -12 0 -11 10 -16 31 -16 31 0 31 -1 25 -37 -25 -138 -46
-273 -46 -298 0 -51 -28 -146 -65 -220 -68 -140 -211 -246 -416 -310 -83 -25
-95 -27 -255 -23 l-169 4 -82 37 c-336 152 -449 288 -469 564 -3 43 -12 105
-19 138 -7 33 -17 80 -20 103 l-7 44 43 -3 c35 -3 44 0 47 14 5 23 32 22 32
-2 0 -20 43 -87 69 -109 9 -7 43 -26 76 -41 46 -21 70 -27 104 -23 36 4 43 2
38 -11 -9 -24 3 -27 24 -6 10 10 29 19 41 19 21 0 21 -1 -7 -30 -42 -44 -12
-37 38 9 23 21 62 50 86 65 24 15 46 36 48 47 3 10 11 19 19 19 31 0 46 78 19
100 -14 12 -12 15 12 31 40 27 146 26 179 0z m-556 -15 c0 -2 3 -11 6 -20 5
-13 -2 -16 -35 -16 -45 0 -59 25 -18 33 34 7 47 7 47 3z m208 -8 c21 -21 13
-38 -18 -38 -31 0 -35 6 -24 34 7 19 25 21 42 4z m570 -16 c3 -18 -2 -22 -22
-22 -19 0 -26 5 -26 19 0 36 43 38 48 3z m235 11 c16 -10 -6 -23 -39 -23 -28
0 -34 4 -34 21 0 18 4 20 33 14 17 -4 35 -9 40 -12z m-1407 -234 c-16 -39 -16
-43 2 -80 13 -26 15 -39 8 -39 -12 0 -36 73 -36 108 0 20 29 66 37 58 3 -3 -2
-24 -11 -47z m1732 39 c22 -22 10 -158 -15 -158 -11 0 -11 5 2 30 19 37 19 67
0 104 -8 15 -15 30 -15 32 0 8 17 3 28 -8z m-1657 -89 c3 -35 4 -66 1 -69 -7
-9 -52 51 -52 70 0 28 22 71 34 67 6 -2 14 -32 17 -68z m1527 -441 c-3 -7 -11
-13 -18 -13 -7 0 -15 6 -17 13 -3 7 4 12 17 12 13 0 20 -5 18 -12z m-1143
-157 c49 -26 71 -44 73 -59 5 -31 -15 -27 -77 16 -51 35 -94 82 -75 82 5 -1
41 -18 79 -39z m765 -56 c-14 -7 -27 -11 -30 -9 -6 7 22 24 40 23 9 0 5 -6
-10 -14z m-588 -30 c50 -23 63 -25 228 -25 127 0 182 4 201 14 14 7 37 16 52
20 22 5 27 3 27 -12 0 -22 -54 -45 -142 -61 -69 -12 -109 -32 -136 -65 l-19
-25 -29 30 c-35 36 -113 74 -174 84 -59 10 -80 21 -80 45 0 26 7 25 72 -5z"/>
<path d="M1151 1357 c-11 -29 -37 -51 -51 -42 -12 7 -40 -12 -40 -27 0 -5 10
-4 21 3 21 11 21 10 5 -12 -27 -38 -21 -83 15 -113 21 -18 35 -24 43 -17 7 6
17 6 26 1 24 -15 60 -12 60 5 0 11 12 15 50 15 28 0 50 -4 50 -9 0 -5 26 -12
57 -16 55 -7 58 -6 85 24 15 17 28 40 28 50 0 38 -23 81 -56 106 -19 14 -34
33 -34 41 0 7 -7 14 -15 14 -32 0 -6 -64 34 -85 36 -18 53 -77 30 -100 -15
-15 -103 -9 -93 6 3 5 1 9 -5 9 -5 0 -13 -4 -16 -10 -8 -13 -111 -13 -136 0
-10 6 -19 7 -19 2 0 -15 -61 -23 -76 -11 -25 21 -17 65 19 94 51 43 74 95 42
95 -9 0 -19 -10 -24 -23z"/>
<path d="M1070 1360 c0 -5 5 -10 10 -10 6 0 10 5 10 10 0 6 -4 10 -10 10 -5 0
-10 -4 -10 -10z"/>
<path d="M1375 1104 c-55 -8 -127 -11 -229 -7 -148 6 -149 6 -167 -18 -24 -30
-24 -81 -1 -101 15 -14 53 -36 148 -86 37 -20 157 -26 248 -13 158 22 265 82
251 139 -10 40 -41 68 -95 86 -55 18 -48 18 -155 0z m155 -28 c33 -13 33 -14
11 -25 -12 -7 -32 -11 -44 -9 -12 1 -40 -6 -62 -17 -35 -18 -60 -20 -197 -19
-155 1 -158 1 -197 29 -23 15 -38 31 -35 36 3 5 79 7 172 3 99 -3 183 -2 207
4 58 15 108 14 145 -2z m68 -59 c9 -45 -75 -86 -226 -113 -132 -23 -198 -13
-297 42 -37 22 -70 44 -72 50 -5 14 29 24 48 14 56 -31 283 -31 394 -1 71 19
81 20 91 6 15 -21 24 -19 24 6 0 26 33 22 38 -4z"/>
<path d="M0 649 c0 -74 4 -119 9 -114 11 12 71 190 71 211 0 8 -10 14 -24 14
-13 0 -31 3 -40 6 -14 5 -16 -9 -16 -117z"/>
<path d="M2555 661 c-13 -26 -22 -31 -50 -31 l-35 0 0 -211 0 -212 63 7 c119
14 107 -11 106 220 l0 201 -34 28 -34 28 -16 -30z"/>
</g>
</svg>
